<svg xmlns="http://www.w3.org/2000/svg" viewBox="0 0 1200 675" fill="none">
  <defs>
    <linearGradient id="bg" x1="0" y1="0" x2="1200" y2="675" gradientUnits="userSpaceOnUse">
      <stop stop-color="#0a0a23"/>
      <stop offset="1" stop-color="#12123a"/>
    </linearGradient>
    <filter id="glow" x="-50%" y="-50%" width="200%" height="200%">
      <feGaussianBlur stdDeviation="4" result="blur"/>
      <feMerge>
        <feMergeNode in="blur"/>
        <feMergeNode in="SourceGraphic"/>
      </feMerge>
    </filter>
  </defs>
  <rect width="1200" height="675" fill="url(#bg)"/>
  <g opacity="0.15" stroke="#22d3ee" stroke-width="1">
    <line x1="80" y1="120" x2="1120" y2="120"/>
    <line x1="80" y1="240" x2="1120" y2="240"/>
    <line x1="80" y1="360" x2="1120" y2="360"/>
    <line x1="80" y1="480" x2="1120" y2="480"/>
    <line x1="200" y1="60" x2="200" y2="615"/>
    <line x1="400" y1="60" x2="400" y2="615"/>
    <line x1="600" y1="60" x2="600" y2="615"/>
    <line x1="800" y1="60" x2="800" y2="615"/>
    <line x1="1000" y1="60" x2="1000" y2="615"/>
  </g>
  <g stroke="#22d3ee" stroke-width="2" opacity="0.45">
    <path d="M220 420 C 320 300, 420 520, 520 280"/>
    <path d="M520 280 C 620 180, 700 360, 780 220"/>
    <path d="M780 220 C 860 140, 920 300, 980 180"/>
    <path d="M220 420 C 300 500, 420 460, 520 280"/>
    <path d="M520 280 C 580 400, 680 380, 780 220"/>
    <path d="M320 520 C 420 440, 500 500, 600 420"/>
    <path d="M600 420 C 700 340, 760 400, 860 320"/>
    <path d="M860 320 C 920 260, 980 300, 1040 240"/>
    <line x1="220" y1="420" x2="320" y2="520"/>
    <line x1="320" y1="520" x2="520" y2="280"/>
    <line x1="600" y1="420" x2="780" y2="220"/>
    <line x1="860" y1="320" x2="980" y2="180"/>
  </g>
  <g filter="url(#glow)">
    <circle cx="220" cy="420" r="28" fill="#0a0a23" stroke="#22d3ee" stroke-width="3"/>
    <circle cx="320" cy="520" r="22" fill="#0a0a23" stroke="#67e8f9" stroke-width="2.5"/>
    <circle cx="520" cy="280" r="34" fill="#0a0a23" stroke="#22d3ee" stroke-width="3"/>
    <circle cx="600" cy="420" r="24" fill="#0a0a23" stroke="#a5f3fc" stroke-width="2.5"/>
    <circle cx="780" cy="220" r="30" fill="#0a0a23" stroke="#22d3ee" stroke-width="3"/>
    <circle cx="860" cy="320" r="20" fill="#0a0a23" stroke="#67e8f9" stroke-width="2.5"/>
    <circle cx="980" cy="180" r="26" fill="#0a0a23" stroke="#22d3ee" stroke-width="3"/>
    <circle cx="1040" cy="240" r="18" fill="#0a0a23" stroke="#a5f3fc" stroke-width="2"/>
  </g>
  <g fill="#e2e8f0" font-family="ui-sans-serif, system-ui, sans-serif" font-size="13" font-weight="600">
    <text x="220" y="426" text-anchor="middle" dy="4">User</text>
    <text x="320" y="526" text-anchor="middle" dy="4">Order</text>
    <text x="520" y="286" text-anchor="middle" dy="4">Product</text>
    <text x="600" y="426" text-anchor="middle" dy="4">Category</text>
    <text x="780" y="226" text-anchor="middle" dy="4">Entity</text>
    <text x="860" y="326" text-anchor="middle" dy="4">Field</text>
    <text x="980" y="186" text-anchor="middle" dy="4">Relation</text>
    <text x="1040" y="246" text-anchor="middle" dy="4">Type</text>
  </g>
  <rect x="48" y="48" width="220" height="88" rx="12" fill="#0f172a" stroke="#22d3ee" stroke-opacity="0.35" stroke-width="1.5"/>
  <text x="68" y="82" fill="#22d3ee" font-family="ui-sans-serif, system-ui, sans-serif" font-size="14" font-weight="700">DataModel UI</text>
  <text x="68" y="108" fill="#94a3b8" font-family="ui-sans-serif, system-ui, sans-serif" font-size="12">AntV G6 · node-edge graph</text>
</svg>