<svg xmlns="http://www.w3.org/2000/svg" viewBox="0 0 1200 675" fill="none">
  <defs>
    <linearGradient id="bg" x1="0" y1="0" x2="1200" y2="675" gradientUnits="userSpaceOnUse">
      <stop stop-color="#ecfdf5"/>
      <stop offset="1" stop-color="#d1fae5"/>
    </linearGradient>
    <linearGradient id="screen" x1="490" y1="90" x2="710" y2="585" gradientUnits="userSpaceOnUse">
      <stop stop-color="#ffffff"/>
      <stop offset="1" stop-color="#f0fdf4"/>
    </linearGradient>
    <filter id="shadow" x="-20%" y="-20%" width="140%" height="140%">
      <feDropShadow dx="0" dy="12" stdDeviation="18" flood-color="#065f46" flood-opacity="0.18"/>
    </filter>
  </defs>
  <rect width="1200" height="675" fill="url(#bg)"/>
  <circle cx="180" cy="120" r="80" fill="#6ee7b7" opacity="0.25"/>
  <circle cx="1020" cy="560" r="120" fill="#34d399" opacity="0.2"/>
  <g filter="url(#shadow)">
    <rect x="455" y="70" width="290" height="535" rx="36" fill="#0f172a"/>
    <rect x="468" y="95" width="264" height="505" rx="28" fill="url(#screen)"/>
    <rect x="555" y="108" width="90" height="8" rx="4" fill="#cbd5e1"/>
  </g>
  <rect x="492" y="140" width="216" height="56" rx="14" fill="#ecfdf5" stroke="#6ee7b7" stroke-width="1.5"/>
  <circle cx="520" cy="168" r="14" fill="#10b981"/>
  <path d="M515 168 L518 172 L526 162" stroke="white" stroke-width="2" stroke-linecap="round" stroke-linejoin="round"/>
  <text x="548" y="162" fill="#065f46" font-family="ui-sans-serif, system-ui, sans-serif" font-size="13" font-weight="700">Daily check-in</text>
  <text x="548" y="182" fill="#047857" font-family="ui-sans-serif, system-ui, sans-serif" font-size="11">How are you feeling today?</text>
  <rect x="492" y="214" width="148" height="72" rx="14" fill="#ffffff" stroke="#a7f3d0" stroke-width="1.5"/>
  <text x="508" y="242" fill="#065f46" font-family="ui-sans-serif, system-ui, sans-serif" font-size="11" font-weight="600">Heart rate</text>
  <text x="508" y="268" fill="#10b981" font-family="ui-sans-serif, system-ui, sans-serif" font-size="22" font-weight="700">72</text>
  <text x="548" y="268" fill="#6b7280" font-family="ui-sans-serif, system-ui, sans-serif" font-size="12">bpm</text>
  <rect x="652" y="214" width="56" height="72" rx="14" fill="#ffffff" stroke="#a7f3d0" stroke-width="1.5"/>
  <path d="M672 248 C672 238, 688 238, 688 248 C688 258, 680 268, 680 268 C680 268, 672 258, 672 248Z" fill="#f87171"/>
  <rect x="492" y="302" width="216" height="110" rx="16" fill="#ffffff" stroke="#bbf7d0" stroke-width="1.5"/>
  <text x="508" y="328" fill="#065f46" font-family="ui-sans-serif, system-ui, sans-serif" font-size="11" font-weight="700">AI Health Chat</text>
  <rect x="508" y="342" width="150" height="28" rx="10" fill="#ecfdf5"/>
  <text x="520" y="361" fill="#047857" font-family="ui-sans-serif, system-ui, sans-serif" font-size="10">Any symptoms today?</text>
  <rect x="508" y="378" width="178" height="24" rx="10" fill="#d1fae5"/>
  <text x="520" y="394" fill="#065f46" font-family="ui-sans-serif, system-ui, sans-serif" font-size="10">Feeling good, light fatigue</text>
  <rect x="492" y="428" width="216" height="88" rx="16" fill="#10b981"/>
  <text x="508" y="454" fill="white" font-family="ui-sans-serif, system-ui, sans-serif" font-size="11" font-weight="700">Today's meal plan</text>
  <text x="508" y="476" fill="#d1fae5" font-family="ui-sans-serif, system-ui, sans-serif" font-size="10">Immune-support lunch · 620 kcal</text>
  <text x="508" y="498" fill="#ecfdf5" font-family="ui-sans-serif, system-ui, sans-serif" font-size="10">Grilled salmon, greens, berries</text>
  <rect x="492" y="532" width="216" height="44" rx="22" fill="#065f46"/>
  <text x="600" y="559" fill="white" text-anchor="middle" font-family="ui-sans-serif, system-ui, sans-serif" font-size="12" font-weight="700">View insights</text>
  <text x="600" y="640" fill="#047857" text-anchor="middle" font-family="ui-sans-serif, system-ui, sans-serif" font-size="14" font-weight="600">MediMind · Healthcare Hackathon 2025</text>
</svg>